<svg xmlns="http://www.w3.org/2000/svg" viewBox="0 0 256 256" width="256" height="256">
  <defs>
    <filter id="g" x="-15%" y="-15%" width="130%" height="130%">
      <feDropShadow dx="0" dy="0" stdDeviation="2.5" flood-color="#ff6b00" flood-opacity="0.85"/>
    </filter>
  </defs>
  <rect x="30" y="34" width="196" height="196" rx="32" fill="#000" opacity="0.35" transform="rotate(3 128 132)"/>
  <rect x="24" y="24" width="196" height="196" rx="32" fill="#14081f" stroke="#ff6b00" stroke-width="7" filter="url(#g)" transform="rotate(-5 122 122)"/>
  <rect x="90" y="10" width="76" height="20" rx="3" fill="#ffd76a" opacity="0.92" transform="rotate(-8 128 20)"/>
  <path d="M38 70 Q46 100 40 125" stroke="#ff6b00" stroke-width="4" fill="none" opacity="0.75"/>
  <path d="M210 78 Q218 112 206 145" stroke="#ff2bd6" stroke-width="3" fill="none" opacity="0.55"/>
  <rect x="58" y="170" width="140" height="16" rx="5" fill="#7c3aed" stroke="#0a0a0c" stroke-width="3"/>
  <rect x="78" y="112" width="100" height="14" rx="4" fill="#ffd76a" stroke="#0a0a0c" stroke-width="4"/>
  <rect x="52" y="92" width="28" height="54" rx="6" fill="#ff2bd6" stroke="#0a0a0c" stroke-width="4"/>
  <rect x="38" y="100" width="18" height="38" rx="5" fill="#00e5ff" stroke="#0a0a0c" stroke-width="3"/>
  <rect x="176" y="92" width="28" height="54" rx="6" fill="#ff2bd6" stroke="#0a0a0c" stroke-width="4"/>
  <rect x="200" y="100" width="18" height="38" rx="5" fill="#00e5ff" stroke="#0a0a0c" stroke-width="3"/>
  <path d="M128 58 L142 58 L130 88 L146 88 L112 140 L124 100 L110 100 Z" fill="#ffd76a" stroke="#0a0a0c" stroke-width="3"/>
</svg>